<svg id="Layer_1" enable-background="new 0 0 511.998 511.998" height="512" viewBox="0 0 511.998 511.998" width="512" xmlns="http://www.w3.org/2000/svg"><path d="m425.479 45.079c0-24.857-20.223-45.079-45.08-45.079s-45.078 20.222-45.078 45.079v104.089c-6.518-2.988-13.756-4.668-21.384-4.668-14.251 0-27.167 5.821-36.5 15.207-9.333-9.386-22.249-15.207-36.5-15.207s-27.166 5.821-36.5 15.207c-9.334-9.386-22.249-15.207-36.5-15.207-28.309 0-51.35 22.961-51.493 51.236-17.67 8.17-29.966 26.053-29.966 46.764v130.501c0 37.095 27.077 67.968 62.5 73.938v50.052c0 8.284 6.716 15 15 15s15-6.716 15-15v-63.359c0-7.455-5.445-13.622-12.571-14.786-1.546-.539-3.2-.846-4.929-.846-24.813 0-45-20.187-45-45v-130.5c0-11.855 9.645-21.5 21.5-21.5h51c11.855 0 21.5 9.645 21.5 21.5s-9.645 21.5-21.5 21.5h-10.171c-6.782 0-12.72 4.55-14.484 11.099-1.764 6.548 1.086 13.466 6.951 16.872 60.248 34.992 78.616 67.941 78.616 141.025 0 8.284 6.716 15 15 15s15-6.716 15-15c0-41.842-5.865-71.569-19.019-96.387-9.881-18.645-24.289-35.14-44.387-50.585 6.208-3.937 11.512-9.17 15.549-15.308 2.926.515 5.899.785 8.905.785 14.251 0 27.167-5.821 36.5-15.207 9.333 9.386 22.249 15.207 36.5 15.207 28.397 0 51.5-23.103 51.5-51.5l-.116-174.921c0-8.315 6.764-15.079 15.078-15.079s15.079 6.764 15.079 15.079l.041 306.42c0 26.831-14.567 51.813-38.017 65.197-4.678 2.669-7.564 7.642-7.564 13.027v67.273c0 8.284 6.716 15 15 15s15-6.716 15-15v-59c28.32-19.521 45.581-51.904 45.581-86.498zm-257.541 129.421c10.132 0 18.627 7.053 20.89 16.5h-41.778c2.261-9.447 10.756-16.5 20.888-16.5zm73 67c-.163 0-.323-.019-.485-.022-.326-16.588-8.523-31.276-21.015-40.471v-5.007c0-.002 0-.004 0-.006.004-11.852 9.647-21.494 21.5-21.494 11.855 0 21.5 9.645 21.5 21.5v24c0 11.855-9.646 21.5-21.5 21.5zm94.5-21.5c0 11.855-9.645 21.5-21.5 21.5s-21.5-9.645-21.5-21.5v-24c0-11.855 9.645-21.5 21.5-21.5s21.5 9.645 21.5 21.5z"/></svg>